<svg xmlns="http://www.w3.org/2000/svg" height="800" width="1200" version="1.0" viewBox="-29.7735 -25.5075 258.037 153.045"><defs><clipPath id="c"><path d="M193.51 733.32s4.15 12.16 17.54 11.32c13.4-.84 22.06 12.28 22.06 12.28s1.23-17.94-12.41-24.18c-13.63-6.23-25.41-1.72-29.14-12.4-3.72-10.68 1.95 12.98 1.95 12.98m-4.95 9.43s-1.37 10.98 9.31 15.38c10.68 4.41 12.43 17.83 12.43 17.83s7.73-13.42-.47-23.39c-8.2-9.97-19.02-10.92-17.87-20.6 1.15-9.67-3.4 10.78-3.4 10.78m-7.65 9.16s-4.61 7.93 2.12 14.76c6.73 6.82 3.71 17.63 3.71 17.63s10.25-7.73 7.22-18c-3.03-10.28-10.98-14.5-6.97-21.52 4.01-7.01-6.08 7.13-6.08 7.13"/></clipPath><clipPath id="a"><path d="M82.205 669.92h181.42v120.95H82.205l.005-120.95z"/></clipPath><radialGradient r="1" gradientTransform="matrix(55.588 0 0 -55.588 216.46 773.16)" cx="0" cy="0" gradientUnits="userSpaceOnUse" id="d"><stop offset="0" stop-color="#3ba25b"/><stop offset=".125" stop-color="#7bba82"/><stop offset=".278" stop-color="#b8d9ba"/><stop offset=".443" stop-color="#68b174"/><stop offset=".756" stop-color="#0f9b4b"/><stop offset="1" stop-color="#0f9b4b"/></radialGradient><linearGradient gradientTransform="matrix(31.953 53.179 53.179 -31.953 191.5 722.84)" gradientUnits="userSpaceOnUse" id="b"><stop offset="0" stop-color="#928f8f"/><stop offset=".42" stop-color="#c3c2c2"/><stop offset=".756" stop-color="#ebeaea"/><stop offset="1" stop-color="#fff"/></linearGradient></defs><g clip-path="url(#a)" transform="matrix(1.25 0 0 -1.25 -107.21 985.8)"><path d="M100.46 728.41c0-1.899-.863-4.094-2.639-4.094-2.417 0-2.96 2.515-2.96 4.661 0 2.097.444 5.155 2.763 5.155 2.515 0 2.836-2.911 2.836-4.514zm1.899 4.341c0 1.529 1.209 1.578 1.85 1.652v.42h-3.749v-1.579h-.049c-.321.592-1.184 1.85-3.009 1.85-3.379 0-4.637-2.639-4.637-5.944 0-3.281 1.529-5.796 4.563-5.796 1.85 0 2.664 1.134 3.083 1.825h.049v-1.825c0-1.53 0-4.07-2.565-4.07-2.072 0-2.466 1.036-2.639 1.998h-2.269c.049-1.505 1.011-2.96 4.538-2.96 4.045 0 4.834 2.146 4.834 4.711v9.718m4.381-9.391h1.899v5.919c0 1.505.346 3.922 2.738 3.922.272 0 .543-.099.814-.173v2.048c-.074.024-.148.024-.222.024-2.343 0-2.96-1.899-3.28-2.935h-.05v2.935l-3.773-.592v-.42c.715-.073 1.874-.147 1.874-1.701v-9.027m12.39 7.91h-5.032c.074.839.469 2.861 2.714 2.861 1.48 0 2.318-1.258 2.318-2.639zm1.85-6.931c-.543-.148-1.159-.296-1.751-.296-3.429 0-5.155 3.478-5.155 5.87v.518h7.202v.37c0 2.935-1.825 4.292-4.144 4.292-3.601 0-4.957-2.096-4.957-5.648 0-4.12 2.121-6.364 5.746-6.364 1.53 0 2.763.321 3.059.444v.814m8.29 6.931h-5.032c.074.839.469 2.861 2.713 2.861 1.481 0 2.319-1.258 2.319-2.639zm1.85-6.931c-.543-.148-1.159-.296-1.751-.296-3.429 0-5.155 3.478-5.155 5.87v.518h7.202v.37c0 2.935-1.825 4.292-4.144 4.292-3.601 0-4.958-2.096-4.958-5.648 0-4.12 2.122-6.364 5.747-6.364 1.53 0 2.763.321 3.059.444v.814m2.21-.979h1.9v5.87c0 1.627 1.677 4.661 3.478 4.661 1.726 0 1.726-1.233 1.726-2.565v-7.966h1.9v8.78c0 1.751-.543 2.96-2.936 2.96-2.466 0-3.749-2.318-4.119-3.281h-.049v3.281l-3.774-.592v-.42c.715-.073 1.874-.147 1.874-1.627v-9.101m19.16.83c-.444-.074-.912-.148-1.356-.148-3.552 0-5.106 3.28-5.106 6.24 0 2.467 1.011 3.848 2.565 3.848 1.652 0 2.097-1.159 2.097-2.17h2.293c0 1.578-1.554 3.132-4.192 3.132-3.553 0-4.859-2.54-4.859-5.648 0-3.749 1.603-6.364 5.919-6.364 1.209 0 2.121.222 2.639.395v.715m3.26 4.84c0 2.023.124 5.106 3.034 5.106 2.664 0 3.059-3.083 3.059-5.106 0-1.874-.198-4.982-3.009-4.982-2.639 0-3.084 3.133-3.084 4.982m3.059-5.944c3.453 0 5.13 2.244 5.13 5.969 0 3.7-1.948 6.043-5.18 6.043-3.6 0-5.105-2.442-5.105-6.068 0-3.527 1.85-5.944 5.155-5.944m6.891.274h1.899v5.919c0 1.505.345 3.922 2.738 3.922.271 0 .543-.099.813-.173v2.048c-.073.024-.147.024-.221.024-2.344 0-2.96-1.899-3.281-2.935h-.049v2.935l-3.774-.592v-.42c.715-.073 1.875-.147 1.875-1.701v-9.027m12.64 7.91h-5.032c.074.839.468 2.861 2.713 2.861 1.48 0 2.319-1.258 2.319-2.639zm1.85-6.931c-.543-.148-1.16-.296-1.752-.296-3.428 0-5.155 3.478-5.155 5.87v.518h7.202v.37c0 2.935-1.825 4.292-4.144 4.292-3.601 0-4.957-2.096-4.957-5.648 0-4.12 2.121-6.364 5.747-6.364 1.529 0 2.763.321 3.059.444v.814m-23.05-8.049c0 .894.259 2.099 1.109 2.099.904 0 1.249-1.184 1.249-2.099 0-.958-.367-2.109-1.238-2.109-.85 0-1.12 1.227-1.12 2.109m3.154 2.498h-.796v-.969h-.022c-.14.333-.431 1.087-1.41 1.087-1.238 0-1.819-1.141-1.819-2.573 0-1.431.549-2.669 1.851-2.669.905 0 1.303.699 1.378 1.033h.022v-1.012c0-.376 0-1.732-1.4-1.732-.602 0-1.054.237-1.496.484v-.882a4.376 4.376 0 011.335-.194c1.561 0 2.357.71 2.357 2.271v5.156m1.726-5.128h.796v2.422c0 .936.324 1.884 1.443 1.884h.226v.936c-.829 0-1.399-.775-1.647-1.335h-.022v1.217h-.796v-5.124m3.92 2.48c0 1.119.182 2.335 1.281 2.335 1.108 0 1.334-1.216 1.334-2.335 0-1.055-.226-2.164-1.334-2.164-1.099 0-1.281 1.109-1.281 2.164m1.281-2.594c1.528 0 2.227.968 2.227 2.626 0 1.636-.699 2.734-2.227 2.734-1.529 0-2.175-1.098-2.175-2.734 0-1.658.646-2.626 2.175-2.626m6.629.114h.775v5.124h-.797v-2.196c0-.991-.42-2.39-1.356-2.39-.689 0-.915.721-.915 1.27v3.316h-.797v-3.66c0-.667.377-1.582 1.228-1.582 1.022 0 1.345.312 1.84 1.367h.022v-1.249m3.34 2.61c0 1.044.517 2.12 1.238 2.12.743 0 1.109-.947 1.109-2.217 0-.958-.226-2.109-1.098-2.109-.958 0-1.249 1.452-1.249 2.206m-.796-4.908h.796v3.218h.022c.119-.323.42-1.033 1.367-1.033 1.324 0 1.851 1.184 1.851 2.615 0 1.615-.57 2.745-1.797 2.745-.829 0-1.302-.732-1.421-1.109h-.022v.991h-.796v-7.427" fill-rule="evenodd" fill="#373a3b"/><path d="M195.05 730.72s5.442 11.312 18.924 9.073c13.481-2.239 23.588 9.523 23.588 9.523s-.57-17.475-15.02-22.05c-14.451-4.575-25.919 1.041-30.781-8.889-4.863-9.93 3.289 12.343 3.289 12.343m-5.338 10.021s-.466 10.753 10.747 14.07c11.214 3.318 14.128 16.162 14.128 16.162s6.706-13.68-2.463-22.611c-9.169-8.931-20.224-8.892-19.881-18.363.344-9.472-2.531 10.742-2.531 10.742m-7.748 9.702s-3.573 8.291 4.136 13.906 6.133 16.451 6.133 16.451 9.289-8.901 4.843-18.359c-4.446-9.458-13.035-12.404-9.939-19.724s-5.173 7.726-5.173 7.726" fill="url(#b)" fill-rule="evenodd"/><g clip-path="url(#c)"><path fill="#0f9b4b" d="M193.51 733.32s4.153 12.158 17.544 11.317c13.392-.84 22.052 12.278 22.052 12.278s1.237-17.938-12.402-24.172c-13.638-6.234-25.41-1.722-29.139-12.403-3.728-10.68 1.945 12.98 1.945 12.98m-4.946 9.432s-1.375 10.978 9.307 15.382c10.682 4.405 12.433 17.827 12.433 17.827s7.729-13.416-.474-23.389c-8.202-9.974-19.017-10.925-17.871-20.6 1.147-9.674-3.395 10.78-3.395 10.78m-7.654 9.159s-4.607 7.933 2.12 14.756 3.714 17.636 3.714 17.636 10.247-7.737 7.217-18.007c-3.03-10.271-10.977-14.501-6.967-21.514 4.01-7.013-6.084 7.129-6.084 7.129"/><path fill="url(#d)" d="M193.51 733.32s4.153 12.158 17.544 11.317c13.392-.84 22.052 12.278 22.052 12.278s1.237-17.938-12.402-24.172c-13.638-6.234-25.41-1.722-29.139-12.403-3.728-10.68 1.945 12.98 1.945 12.98m-4.946 9.432s-1.375 10.978 9.307 15.382c10.682 4.405 12.433 17.827 12.433 17.827s7.729-13.416-.474-23.389c-8.202-9.974-19.017-10.925-17.871-20.6 1.147-9.674-3.395 10.78-3.395 10.78m-7.654 9.159s-4.607 7.933 2.12 14.756 3.714 17.636 3.714 17.636 10.247-7.737 7.217-18.007c-3.03-10.271-10.977-14.501-6.967-21.514 4.01-7.013-6.084 7.129-6.084 7.129"/></g><path fill="none" stroke-width=".17" stroke-miterlimit="3.864" stroke="#68b174" d="M231.38 741.91a.87.87 0 101.739.001.87.87 0 00-1.739-.001z"/><path fill="#68b174" fill-rule="evenodd" d="M231.89 741.44h.126v.403h.306c.121 0 .144-.078.157-.171.018-.092-.002-.194.034-.232h.14c-.053.065-.048.168-.055.26-.01.093-.032.173-.142.194v.003c.114.031.164.125.164.238 0 .151-.11.247-.287.247h-.443zm.126.508v.328h.311c.118 0 .168-.068.168-.16 0-.138-.101-.168-.218-.168h-.261"/><path fill="none" stroke-width=".085" stroke-miterlimit="5" stroke="#68b174" d="M231.89 741.44h.126v.403h.306c.121 0 .144-.078.157-.171.018-.092-.002-.194.034-.232h.14c-.053.065-.048.168-.055.26-.01.093-.032.173-.142.194v.003c.114.031.164.125.164.238 0 .151-.11.247-.287.247h-.443zm.126.508v.328h.311c.118 0 .168-.068.168-.16 0-.138-.101-.168-.218-.168z"/></g><path fill="none" d="M0 0h198.49v102.03H0z"/></svg>